<?xml version="1.0" encoding="utf-8"?>
<!-- Generator: Adobe Illustrator 23.0.1, SVG Export Plug-In . SVG Version: 6.00 Build 0)  -->
<svg version="1.1" id="Слой_1" xmlns="http://www.w3.org/2000/svg" xmlns:xlink="http://www.w3.org/1999/xlink" x="0px" y="0px"
	 viewBox="0 0 195.7 43" style="enable-background:new 0 0 195.7 43;" xml:space="preserve">
<style type="text/css">
	.st0{fill:#ED1C24;}
	.st1{fill:#54B94A;}
</style>
<g>
	<path class="st0" d="M12.2,35.1c-0.2-0.5-0.4-1.1-0.5-1.8c-1.3,1.4-2.9,2.1-5,2.1c-1.9,0-3.5-0.6-4.8-1.7C0.6,32.7,0,31.3,0,29.6
		c0-2.1,0.8-3.7,2.3-4.8c1.6-1.1,3.8-1.7,6.7-1.7h2.4v-1.1c0-0.9-0.2-1.6-0.7-2.2c-0.5-0.5-1.2-0.8-2.2-0.8c-0.9,0-1.6,0.2-2.1,0.6
		c-0.5,0.4-0.8,1-0.8,1.8H0.4c0-1.1,0.4-2.2,1.1-3.2c0.7-1,1.7-1.7,3-2.3C5.8,15.3,7.2,15,8.8,15c2.4,0,4.4,0.6,5.8,1.8
		c1.4,1.2,2.1,2.9,2.1,5.2v8.6c0,1.9,0.3,3.3,0.8,4.3v0.3H12.2z M7.9,31.5c0.8,0,1.5-0.2,2.2-0.5c0.7-0.3,1.1-0.8,1.5-1.4v-3.4h-2
		c-2.6,0-4.1,0.9-4.2,2.7l0,0.3c0,0.7,0.2,1.2,0.7,1.6C6.4,31.3,7.1,31.5,7.9,31.5z"/>
	<path class="st1" d="M30.5,25.9H20.2v-4.3h10.3V25.9z"/>
	<path class="st1" d="M51.9,25.7c0,3-0.7,5.5-2.1,7.3c-1.4,1.8-3.3,2.8-5.6,2.8c-2,0-3.6-0.7-4.8-2.1V43h-5.3V15.6H39l0.2,1.9
		c1.3-1.5,2.9-2.3,5-2.3c2.4,0,4.3,0.9,5.7,2.7c1.4,1.8,2,4.3,2,7.5V25.7z M46.6,25.3c0-1.8-0.3-3.3-1-4.3c-0.7-1-1.6-1.5-2.8-1.5
		c-1.7,0-2.8,0.6-3.4,1.9v8.1c0.6,1.3,1.8,2,3.5,2C45.3,31.5,46.6,29.4,46.6,25.3z"/>
	<path class="st1" d="M60,35.4h-5.3V7.3H60V35.4z"/>
	<path class="st1" d="M75.6,35.4c-0.2-0.5-0.4-1.1-0.5-1.8c-1.3,1.4-2.9,2.1-5,2.1c-1.9,0-3.5-0.6-4.8-1.7c-1.3-1.1-1.9-2.5-1.9-4.2
		c0-2.1,0.8-3.7,2.3-4.8c1.6-1.1,3.8-1.7,6.7-1.7h2.4v-1.1c0-0.9-0.2-1.6-0.7-2.2c-0.5-0.5-1.2-0.8-2.2-0.8c-0.9,0-1.6,0.2-2.1,0.6
		c-0.5,0.4-0.8,1-0.8,1.8h-5.3c0-1.1,0.4-2.2,1.1-3.2c0.7-1,1.7-1.7,3-2.3c1.3-0.6,2.7-0.8,4.4-0.8c2.4,0,4.4,0.6,5.8,1.8
		c1.4,1.2,2.1,2.9,2.1,5.2v8.6c0,1.9,0.3,3.3,0.8,4.3v0.3H75.6z M71.2,31.7c0.8,0,1.5-0.2,2.2-0.5c0.7-0.3,1.1-0.8,1.5-1.4v-3.4h-2
		c-2.6,0-4.1,0.9-4.2,2.7l0,0.3c0,0.7,0.2,1.2,0.7,1.6C69.7,31.5,70.4,31.7,71.2,31.7z"/>
	<path class="st1" d="M89.5,10.8v4.9h3.4v3.9h-3.4v9.9c0,0.7,0.1,1.3,0.4,1.6c0.3,0.3,0.8,0.5,1.6,0.5c0.6,0,1.1,0,1.6-0.1v4
		c-1,0.3-2.1,0.5-3.2,0.5c-3.7,0-5.6-1.9-5.7-5.6V19.5h-2.9v-3.9h2.9v-4.9H89.5z"/>
	<path class="st1" d="M96.8,35.4V19.5h-2.9v-3.9h2.9v-1.7c0-2.2,0.6-3.9,1.9-5.2c1.3-1.2,3.1-1.8,5.3-1.8c0.7,0,1.6,0.1,2.7,0.4
		l-0.1,4.1c-0.4-0.1-1-0.2-1.6-0.2c-2,0-3,0.9-3,2.8v1.6h3.9v3.9h-3.9v15.9H96.8z"/>
	<path class="st1" d="M145.4,20.3c-0.7-0.1-1.4-0.1-1.9-0.1c-2,0-3.3,0.7-3.9,2v12.9h-5.3V15.4h5l0.1,2.4c1.1-1.8,2.5-2.7,4.4-2.7
		c0.6,0,1.1,0.1,1.6,0.2L145.4,20.3z"/>
	<path class="st1" d="M152.2,15.4l0.2,2.2c1.4-1.7,3.3-2.6,5.7-2.6c2.5,0,4.3,1,5.2,3c1.4-2,3.4-3,5.9-3c2.1,0,3.7,0.6,4.8,1.9
		c1,1.2,1.6,3.1,1.6,5.6v12.6h-5.3V22.5c0-1.1-0.2-1.9-0.7-2.5c-0.4-0.5-1.2-0.8-2.3-0.8c-1.6,0-2.7,0.8-3.3,2.3l0,13.6h-5.3V22.6
		c0-1.1-0.2-2-0.7-2.5c-0.5-0.5-1.2-0.8-2.3-0.8c-1.5,0-2.6,0.6-3.3,1.9v14h-5.3V15.4H152.2z"/>
	<path class="st1" d="M190.3,35.1c-0.2-0.5-0.4-1.1-0.5-1.8c-1.3,1.4-2.9,2.1-5,2.1c-1.9,0-3.5-0.6-4.8-1.7
		c-1.3-1.1-1.9-2.5-1.9-4.2c0-2.1,0.8-3.7,2.3-4.8c1.6-1.1,3.8-1.7,6.7-1.7h2.4v-1.1c0-0.9-0.2-1.6-0.7-2.2
		c-0.5-0.5-1.2-0.8-2.2-0.8c-0.9,0-1.6,0.2-2.1,0.6c-0.5,0.4-0.8,1-0.8,1.8h-5.3c0-1.1,0.4-2.2,1.1-3.2c0.7-1,1.7-1.7,3-2.3
		c1.3-0.6,2.7-0.8,4.4-0.8c2.4,0,4.4,0.6,5.8,1.8c1.4,1.2,2.1,2.9,2.1,5.2v8.6c0,1.9,0.3,3.3,0.8,4.3v0.3H190.3z M186,31.5
		c0.8,0,1.5-0.2,2.2-0.5c0.7-0.3,1.1-0.8,1.5-1.4v-3.4h-2c-2.6,0-4.1,0.9-4.2,2.7l0,0.3c0,0.7,0.2,1.2,0.7,1.6
		C184.5,31.3,185.2,31.5,186,31.5z"/>
	<g>
		<path class="st1" d="M130.5,0c-2.1,2.2-4.9,5.8-7.2,10.7c-2.7,5.9-3.3,11.3-3.4,14.6c2.9-3.7,5.7-7.4,8.6-11.1L130.5,0z"/>
		<path class="st0" d="M120.4,12.8c-0.1,0.6-0.2,1.2-0.3,1.9c-0.8,0.1-1.9,0.4-2.9,1.1c-3.2,2.2-3.1,6.9-3.1,9.1
			c0,2.2,0.1,7,3.3,8.9c1,0.6,1.9,0.7,2.6,0.7c0.7,0,1.8,0,2.9-0.6c2.2-1.2,2.7-3.8,3.2-6c0.3-1.5,0.6-4,0-7.2c1-1.3,2.1-2.7,3.1-4
			c0.7,1,1.8,2.8,2.2,5.4c0.2,0.9,0.4,2.9-0.1,5.3c-0.2,1.2-0.7,3.5-2.5,5.5c-3.1,3.5-8,3.4-8.9,3.4c-0.8,0-5.1,0.1-8.2-3.2
			c-2.6-2.7-2.8-6.1-2.8-7.9c-0.1-1.6-0.2-5.5,2.5-8.7c2.2-2.5,4.9-3.2,6-3.5C118.5,13,119.5,12.9,120.4,12.8z"/>
	</g>
</g>
</svg>
