<?xml version="1.0" encoding="utf-8"?>
<!-- Generator: Adobe Illustrator 23.0.1, SVG Export Plug-In . SVG Version: 6.00 Build 0)  -->
<svg version="1.1" id="Слой_1" xmlns="http://www.w3.org/2000/svg" xmlns:xlink="http://www.w3.org/1999/xlink" x="0px" y="0px"
	 viewBox="0 0 184.7 43" style="enable-background:new 0 0 184.7 43;" xml:space="preserve">
<style type="text/css">
	.st0{fill:#ED1C24;}
	.st1{fill:#54B94A;}
</style>
<g>
	<path class="st0" d="M12.5,35.1c-0.2-0.5-0.4-1.1-0.5-1.8c-1.3,1.5-3,2.2-5.1,2.2c-2,0-3.6-0.6-4.9-1.7C0.6,32.6,0,31.2,0,29.4
		c0-2.1,0.8-3.8,2.4-4.9c1.6-1.1,3.9-1.7,6.9-1.7h2.5v-1.2c0-0.9-0.2-1.7-0.7-2.2c-0.5-0.6-1.2-0.8-2.3-0.8c-0.9,0-1.6,0.2-2.1,0.7
		c-0.5,0.4-0.8,1-0.8,1.8H0.4c0-1.2,0.4-2.2,1.1-3.2c0.7-1,1.7-1.8,3.1-2.3c1.3-0.6,2.8-0.8,4.4-0.8c2.5,0,4.4,0.6,5.9,1.9
		c1.5,1.2,2.2,3,2.2,5.3v8.7c0,1.9,0.3,3.4,0.8,4.3v0.3H12.5z M8,31.3c0.8,0,1.5-0.2,2.2-0.5c0.7-0.4,1.2-0.8,1.5-1.4v-3.5h-2
		c-2.7,0-4.1,0.9-4.3,2.8l0,0.3c0,0.7,0.2,1.2,0.7,1.7C6.6,31.1,7.2,31.3,8,31.3z"/>
	<path class="st1" d="M19.9,24.9c0-3.1,0.7-5.6,2.2-7.5c1.5-1.9,3.5-2.8,5.9-2.8c2.2,0,3.9,0.8,5.2,2.3l0.2-1.9h4.9v19.5
		c0,1.8-0.4,3.3-1.2,4.6c-0.8,1.3-1.9,2.3-3.4,3s-3.1,1-5.1,1c-1.5,0-2.9-0.3-4.3-0.9c-1.4-0.6-2.5-1.3-3.2-2.3l2.4-3.3
		c1.3,1.5,3,2.3,4.9,2.3c1.4,0,2.5-0.4,3.3-1.1c0.8-0.8,1.2-1.8,1.2-3.2v-1.1c-1.2,1.4-2.9,2.1-4.9,2.1c-2.4,0-4.4-0.9-5.9-2.8
		c-1.5-1.9-2.2-4.4-2.2-7.5V24.9z M25.3,25.3c0,1.8,0.4,3.3,1.1,4.3c0.7,1,1.7,1.6,3,1.6c1.6,0,2.8-0.6,3.5-1.8v-8.5
		c-0.7-1.2-1.9-1.8-3.5-1.8c-1.3,0-2.3,0.5-3,1.6C25.7,21.6,25.3,23.2,25.3,25.3z"/>
	<path class="st1" d="M53.5,20c-0.7-0.1-1.4-0.1-1.9-0.1c-2,0-3.4,0.7-4,2.1v13.2h-5.4V15h5.1l0.1,2.4c1.1-1.8,2.6-2.8,4.5-2.8
		c0.6,0,1.2,0.1,1.7,0.2L53.5,20z"/>
	<path class="st1" d="M94.8,25.6H84.3v-4.3h10.5V25.6z"/>
	<path class="st1" d="M97.8,24.6c0-3.1,0.7-5.6,2.2-7.5c1.5-1.9,3.5-2.8,5.9-2.8c2.2,0,3.9,0.8,5.2,2.3l0.2-1.9h4.9v19.5
		c0,1.8-0.4,3.3-1.2,4.6c-0.8,1.3-1.9,2.3-3.4,3c-1.5,0.7-3.1,1-5.1,1c-1.5,0-2.9-0.3-4.3-0.9c-1.4-0.6-2.5-1.3-3.2-2.3l2.4-3.3
		c1.3,1.5,3,2.3,4.9,2.3c1.4,0,2.5-0.4,3.3-1.1c0.8-0.8,1.2-1.8,1.2-3.2v-1.1c-1.2,1.4-2.9,2.1-4.9,2.1c-2.4,0-4.4-0.9-5.9-2.8
		c-1.5-1.9-2.2-4.4-2.2-7.5V24.6z M103.2,25c0,1.8,0.4,3.3,1.1,4.3c0.7,1,1.7,1.6,3,1.6c1.6,0,2.8-0.6,3.5-1.8v-8.5
		c-0.7-1.2-1.9-1.8-3.5-1.8c-1.3,0-2.3,0.5-3,1.6C103.5,21.3,103.2,22.9,103.2,25z"/>
	<path class="st1" d="M131.2,35.1c-0.2-0.5-0.4-1.1-0.5-1.8c-1.3,1.5-3,2.2-5.1,2.2c-2,0-3.6-0.6-4.9-1.7c-1.3-1.1-1.9-2.6-1.9-4.3
		c0-2.1,0.8-3.8,2.4-4.9c1.6-1.1,3.9-1.7,6.9-1.7h2.5v-1.2c0-0.9-0.2-1.7-0.7-2.2c-0.5-0.6-1.2-0.8-2.3-0.8c-0.9,0-1.6,0.2-2.1,0.7
		c-0.5,0.4-0.8,1-0.8,1.8h-5.4c0-1.2,0.4-2.2,1.1-3.2c0.7-1,1.7-1.8,3.1-2.3c1.3-0.6,2.8-0.8,4.4-0.8c2.5,0,4.4,0.6,5.9,1.9
		c1.5,1.2,2.2,3,2.2,5.3v8.7c0,1.9,0.3,3.4,0.8,4.3v0.3H131.2z M126.8,31.3c0.8,0,1.5-0.2,2.2-0.5c0.7-0.4,1.2-0.8,1.5-1.4v-3.5h-2
		c-2.7,0-4.1,0.9-4.3,2.8l0,0.3c0,0.7,0.2,1.2,0.7,1.7C125.3,31.1,125.9,31.3,126.8,31.3z"/>
	<path class="st1" d="M146.4,10V15h3.4v3.9h-3.4v10c0,0.7,0.1,1.3,0.4,1.6c0.3,0.3,0.8,0.5,1.6,0.5c0.6,0,1.1,0,1.6-0.1V35
		c-1.1,0.3-2.1,0.5-3.3,0.5c-3.8,0-5.7-1.9-5.8-5.7V18.9h-2.9V15h2.9V10H146.4z"/>
	<path class="st1" d="M150.9,24.8c0-2,0.4-3.8,1.2-5.3c0.8-1.6,1.9-2.8,3.3-3.6c1.4-0.9,3.1-1.3,5-1.3c2.7,0,4.9,0.8,6.6,2.5
		c1.7,1.7,2.7,3.9,2.9,6.8l0,1.4c0,3.1-0.9,5.6-2.6,7.4c-1.7,1.9-4,2.8-6.9,2.8c-2.9,0-5.2-0.9-6.9-2.8c-1.7-1.9-2.6-4.4-2.6-7.6
		V24.8z M156.3,25.2c0,1.9,0.4,3.4,1.1,4.4c0.7,1,1.7,1.5,3.1,1.5c1.3,0,2.3-0.5,3.1-1.5c0.7-1,1.1-2.6,1.1-4.8
		c0-1.9-0.4-3.3-1.1-4.4c-0.7-1-1.8-1.5-3.1-1.5c-1.3,0-2.3,0.5-3.1,1.5C156.7,21.5,156.3,23.1,156.3,25.2z"/>
	<path class="st1" d="M184.6,20c-0.7-0.1-1.4-0.1-1.9-0.1c-2,0-3.4,0.7-4,2.1v13.2h-5.4V15h5.1l0.1,2.4c1.1-1.8,2.6-2.8,4.5-2.8
		c0.6,0,1.2,0.1,1.7,0.2L184.6,20z"/>
	<g>
		<path class="st1" d="M78.9,0c-2.1,2.3-5,5.9-7.3,10.9c-2.7,6-3.4,11.5-3.5,14.9C71,22,74,18.2,76.9,14.4L78.9,0z"/>
		<path class="st0" d="M68.7,13c-0.1,0.6-0.2,1.3-0.3,1.9c-0.8,0.1-1.9,0.4-2.9,1.1c-3.2,2.3-3.2,7-3.1,9.3c0,2.2,0.1,7.1,3.4,9
			c1,0.6,2,0.7,2.6,0.8c0.7,0,1.9,0,3-0.6c2.2-1.2,2.8-3.9,3.3-6.1c0.3-1.5,0.6-4.1,0-7.3c1-1.4,2.1-2.7,3.1-4.1
			c0.7,1,1.8,2.9,2.3,5.5c0.2,0.9,0.4,2.9-0.1,5.4c-0.2,1.2-0.7,3.6-2.5,5.6c-3.2,3.6-8.2,3.4-9,3.4c-0.8,0-5.2,0.1-8.3-3.2
			c-2.7-2.8-2.8-6.2-2.9-8c-0.1-1.7-0.2-5.6,2.6-8.8c2.2-2.5,5-3.3,6.1-3.5C66.7,13.2,67.7,13.1,68.7,13z"/>
	</g>
</g>
</svg>
