<?xml version="1.0" encoding="utf-8"?>
<!-- Generator: Adobe Illustrator 23.0.1, SVG Export Plug-In . SVG Version: 6.00 Build 0)  -->
<svg version="1.1" id="Слой_1" xmlns="http://www.w3.org/2000/svg" xmlns:xlink="http://www.w3.org/1999/xlink" x="0px" y="0px"
	 viewBox="0 0 84 71.4" style="enable-background:new 0 0 84 71.4;" xml:space="preserve">
<style type="text/css">
	.st0{fill:#E0E0E0;}
</style>
<path class="st0" d="M73.6,10.9h-13l-4-7.9C55.7,1.1,53.9,0,51.8,0H32.1c-2,0-3.9,1.1-4.8,2.9l-4,7.9h-13C4.6,10.9,0,15.5,0,21.1V61
	c0,5.7,4.6,10.3,10.3,10.3h63.3C79.3,71.4,84,66.8,84,61V21.1C83.9,15.5,79.3,10.9,73.6,10.9z M42,59.8c-11.1,0-20.1-9-20.1-20.1
	s9-20.1,20.1-20.1s20.1,9,20.1,20.1S53.1,59.8,42,59.8z M42,26c-7.5,0-13.7,6.2-13.7,13.7S34.4,53.4,42,53.4s13.7-6.2,13.7-13.7
	S49.5,26,42,26z"/>
</svg>
