<svg xmlns="http://www.w3.org/2000/svg" xmlns:xlink="http://www.w3.org/1999/xlink">
  <symbol id="add-circle" viewBox="0 0 24 24">
    <g>
      <!-- <path fill="none" d="M0 0h24v24H0z"/> -->
      <path d="M11 11V7h2v4h4v2h-4v4h-2v-4H7v-2h4zm1 11C6.477 22 2 17.523 2 12S6.477 2 12 2s10 4.477 10 10-4.477 10-10 10zm0-2a8 8 0 1 0 0-16 8 8 0 0 0 0 16z"/>
    </g>
  </symbol>
  <symbol id="bookmark-fill" viewBox="0 0 24 24">
    <g>
      <path fill="none" d="M0 0h24v24H0z"/>
      <path d="M5 2h14a1 1 0 0 1 1 1v19.143a.5.5 0 0 1-.766.424L12 18.03l-7.234 4.536A.5.5 0 0 1 4 22.143V3a1 1 0 0 1 1-1z"/>
    </g>
  </symbol>
  <symbol id="bookmark" viewBox="0 0 24 24">
    <g>
      <path fill="none" d="M0 0h24v24H0z"/>
      <path d="M5 2h14a1 1 0 0 1 1 1v19.143a.5.5 0 0 1-.766.424L12 18.03l-7.234 4.536A.5.5 0 0 1 4 22.143V3a1 1 0 0 1 1-1zm13 2H6v15.432l6-3.761 6 3.761V4z"/>
    </g>
  </symbol>
  <symbol id="cards" viewBox="0 0 24 24">
    <g>
      <path fill="none" d="M0 0h24v24H0z"/>
      <path d="M3 3h8v8H3V3zm0 10h8v8H3v-8zM13 3h8v8h-8V3zm0 10h8v8h-8v-8zm2-8v4h4V5h-4zm0 10v4h4v-4h-4zM5 5v4h4V5H5zm0 10v4h4v-4H5z"/>
    </g>
  </symbol>
  <symbol id="list" viewBox="0 0 24 24">
    <g>
      <path fill="none" d="M0 0h24v24H0z"/>
      <path d="M11 4h10v2H11V4zm0 4h6v2h-6V8zm0 6h10v2H11v-2zm0 4h6v2h-6v-2zM3 4h6v6H3V4zm2 2v2h2V6H5zm-2 8h6v6H3v-6zm2 2v2h2v-2H5z"/>
    </g>
  </symbol>
  <symbol id="list-2" viewBox="0 0 24 24">
<g>
	<path fill="none" d="M0,0h24v24H0V0z"/>
	<path d="M3,4h18v2H3V4z M3,8h10v2H3V8z M3,14h18v2H3V14z M3,18h10v2H3V18z"/>
</g>
  </symbol>
  <symbol id="menu" viewBox="0 0 24 24">
    <g>
      <path fill="none" d="M0 0h24v24H0z"/>
      <path d="M3 4h18v2H3V4zm0 7h18v2H3v-2zm0 7h18v2H3v-2z"/>
    </g>
  </symbol>
  <symbol id="phone" viewBox="0 0 24 24">
    <g>
      <path fill="none" d="M0 0h24v24H0z"/>
      <path
        fill-rule="nonzero"
        d="M9.366 10.682a10.556 10.556 0 0 0 3.952 3.952l.884-1.238a1 1 0 0 1 1.294-.296 11.422 11.422 0 0 0 4.583 1.364 1 1 0 0 1 .921.997v4.462a1 1 0 0 1-.898.995c-.53.055-1.064.082-1.602.082C9.94 21 3 14.06 3 5.5c0-.538.027-1.072.082-1.602A1 1 0 0 1 4.077 3h4.462a1 1 0 0 1 .997.921A11.422 11.422 0 0 0 10.9 8.504a1 1 0 0 1-.296 1.294l-1.238.884zm-2.522-.657l1.9-1.357A13.41 13.41 0 0 1 7.647 5H5.01c-.006.166-.009.333-.009.5C5 12.956 11.044 19 18.5 19c.167 0 .334-.003.5-.01v-2.637a13.41 13.41 0 0 1-3.668-1.097l-1.357 1.9a12.442 12.442 0 0 1-1.588-.75l-.058-.033a12.556 12.556 0 0 1-4.702-4.702l-.033-.058a12.442 12.442 0 0 1-.75-1.588z"/>
    </g>
  </symbol>
  <symbol id="restart" viewBox="0 0 24 24">
    <g>
      <path fill="none" d="M0 0h24v24H0z"/>
      <path d="M18.537 19.567A9.961 9.961 0 0 1 12 22C6.477 22 2 17.523 2 12S6.477 2 12 2s10 4.477 10 10c0 2.136-.67 4.116-1.81 5.74L17 12h3a8 8 0 1 0-2.46 5.772l.997 1.795z"/>
    </g>
  </symbol>
  <symbol id="search" viewBox="0 0 24 24">
    <g>
      <path fill="none" d="M0 0h24v24H0z"/>
      <path
        d="M18.031 16.617l4.283 4.282-1.415 1.415-4.282-4.283A8.96 8.96 0 0 1 11 20c-4.968 0-9-4.032-9-9s4.032-9 9-9 9 4.032 9 9a8.96 8.96 0 0 1-1.969 5.617zm-2.006-.742A6.977 6.977 0 0 0 18 11c0-3.868-3.133-7-7-7-3.868 0-7 3.132-7 7 0 3.867 3.132 7 7 7a6.977 6.977 0 0 0 4.875-1.975l.15-.15z"/>
    </g>
  </symbol>
  <symbol id="user" viewBox="0 0 24 24">
    <g>
      <path fill="none" d="M0 0h24v24H0z"/>
      <path d="M20 22h-2v-2a3 3 0 0 0-3-3H9a3 3 0 0 0-3 3v2H4v-2a5 5 0 0 1 5-5h6a5 5 0 0 1 5 5v2zm-8-9a6 6 0 1 1 0-12 6 6 0 0 1 0 12zm0-2a4 4 0 1 0 0-8 4 4 0 0 0 0 8z"/>
    </g>
  </symbol>
  <symbol id="book" viewBox="0 0 20.2 24">
    <path class="st0" d="M2.8,20.3h14.6c1.6,0,2.8-1.3,2.8-2.8V2.8c0-1.6-1.3-2.8-2.8-2.8H2.8C1.3,0,0,1.3,0,2.8v18.4
	C0,22.7,1.3,24,2.8,24h13.6h0.9c1.6,0,2.8-1.3,2.8-2.8v0c-0.8,0.6-1.8,0.9-2.8,0.9h-0.9H2.8c-0.5,0-0.9-0.4-0.9-0.9
	S2.3,20.3,2.8,20.3z M1.9,2.8c0-0.5,0.4-0.9,0.9-0.9h14.6c0.5,0,0.9,0.4,0.9,0.9v14.6c0,0.5-0.4,0.9-0.9,0.9H2.8
	c-0.3,0-0.6,0.1-0.9,0.2V2.8z M9.3,5.7c0-0.6,0.5-1.2,1.2-1.2c0.6,0,1.2,0.5,1.2,1.2s-0.5,1.2-1.2,1.2S9.3,6.3,9.3,5.7z M8.1,10.5
	L7.3,8.9c0,0,0.1-0.1,0.8-0.4c0.8-0.4,1.7-0.3,2.3,0.2c0.7,0.5,1,1.3,0.9,2.2c0,0,0,0.1,0,0.1l-0.7,3c0,0.2,0.1,0.3,0.2,0.3
	c0.1,0.1,0.2,0.1,0.4,0l0.6-0.3l0.8,1.7L11.9,16c-0.3,0.2-0.7,0.2-1,0.2c-0.5,0-0.9-0.1-1.3-0.4c-0.7-0.5-1-1.3-0.9-2.2
	c0,0,0-0.1,0-0.1l0.7-3c0-0.2-0.1-0.3-0.2-0.3c-0.1-0.1-0.2-0.1-0.4,0C8.2,10.5,8.1,10.5,8.1,10.5z"/>
  </symbol>
  <symbol id="box" viewBox="0 0 26 26">
    <path class="st0" d="M24.5,15.5V5.3c0,0,0,0,0,0v0c0,0,0,0,0,0c0-0.1,0-0.3-0.1-0.4c0,0,0,0,0,0l0,0c0,0,0,0,0,0l-3-4.6
    C21.2,0.1,20.9,0,20.7,0H6.9C6.6,0,6.4,0.1,6.2,0.3l-3,4.6c0,0,0,0,0,0l0,0c0,0,0,0,0,0C3.1,5,3,5.2,3,5.3c0,0,0,0,0,0v0
    c0,0,0,0,0,0v10H0.8c-0.4,0-0.8,0.3-0.8,0.8v9.1C0,25.7,0.3,26,0.8,26h3c0.7,0,1.3-0.3,1.7-0.8c0.8,0.2,2.6,0.8,5.2,0.8h6.9
    c1.7,0,3.3-0.8,4.3-2.1l3.7-4.9c0,0,0,0,0,0C26.5,17.8,25.9,16,24.5,15.5z M16.8,1.5h3.5l2,3h-5.5V1.5z M12.2,1.5h3v3h-3V1.5z
    M12.2,6.1h3v4l-1.1-0.7c-0.3-0.2-0.6-0.2-0.8,0l-1.1,0.7V6.1z M7.3,1.5h3.5v3H5.2L7.3,1.5z M4.6,23.7c0,0.4-0.3,0.8-0.8,0.8H1.5
    v-7.6h2.3c0.4,0,0.8,0.3,0.8,0.8V23.7z M4.6,15.5V6.1h6.1v5.4c0,0.6,0.7,1,1.2,0.6l1.9-1.2l1.9,1.2c0.5,0.3,1.2,0,1.2-0.6V6.1H23
    v9.4c-0.3,0.1-0.7,0.3-0.9,0.6l-2.2,2.4c-0.3-0.9-1.2-1.6-2.2-1.6H14c-0.5,0-1-0.2-1.3-0.5c-2-1.8-5-1.8-7,0
    C5.4,15.9,5,15.6,4.6,15.5z M24.3,18.1C24.3,18.1,24.3,18.1,24.3,18.1L20.7,23c-0.7,1-1.9,1.5-3,1.5h-6.9c-1.8,0-3.2-0.3-4.6-0.7
    c0-0.1,0,0.4,0-5.8l0.5-0.5c1.4-1.3,3.6-1.3,5,0c0.6,0.6,1.5,0.9,2.3,0.9h3.6c0.4,0,0.8,0.3,0.8,0.8c0,0.4-0.3,0.8-0.8,0.8h-5.5
    c-0.4,0-0.8,0.3-0.8,0.8c0,0.4,0.3,0.8,0.8,0.8h6c0.6,0,1.2-0.3,1.7-0.7l3.4-3.6c0.1-0.2,0.3-0.2,0.6-0.2
    C24.3,16.9,24.7,17.6,24.3,18.1z M20.7,13.8h-3c-0.4,0-0.8,0.3-0.8,0.8s0.3,0.8,0.8,0.8h3c0.4,0,0.8-0.3,0.8-0.8
    S21.1,13.8,20.7,13.8z"/>
  </symbol>
  <symbol id="food" viewBox="0 0 25.9 26">
    <path class="st0" d="M23.1,10.2h-1.4c0-2.1-1.1-3.9-2.6-5c0.2-0.1,0.3-0.2,0.5-0.4c1.3-1.3,0.8-3.8,0.7-4.1l-0.1-0.4l-0.4-0.1
	c-0.3-0.1-2.7-0.6-4.1,0.7c-0.9,0.9-0.9,2.3-0.9,3.2c-1,0.1-1.9,0.4-2.7,1V1.5h1.2V0H5.9v1.5h1.2v4.6C5.5,6.5,4.3,7.9,4.3,9.6v0.6
	H2.9L0,16.5l1.4,0.6l1.8-3.8V26h19.7V13.3l1.8,3.8l1.4-0.6L23.1,10.2z M16.7,2c0.5-0.5,1.5-0.5,2.2-0.4c0.1,0.7,0.1,1.7-0.4,2.2
	c-0.4,0.4-1.2,0.5-1.9,0.4c-0.1,0-0.2,0-0.3,0C16.2,3.4,16.2,2.4,16.7,2z M15.4,5.6c2.6,0,4.7,2.1,4.7,4.6h-5.3V9.6
	c0-1.4-0.8-2.6-2.1-3.2C13.5,5.9,14.4,5.6,15.4,5.6z M5.8,9.6c0-1.1,0.9-2,2-2h0.8V1.5h1.9v6.1h0.8c1.1,0,2,0.9,2,2v0.6H5.8V9.6z
	 M21.1,11.7L18,15.5H7.9l-3.1-3.8H21.1z M21.3,21.8c-0.5-0.3-0.9-0.8-0.9-1.5c0-0.6,0.4-1.2,0.9-1.5V21.8z M19,19.6h-1.2v1.5H19
	c0.3,1.1,1.2,2,2.3,2.3v1.1H4.7V13.9L7.2,17h11.6l2.5-3.1v3.3h0C20.1,17.5,19.2,18.4,19,19.6z M6.5,21.4h3.2V23H6.5V21.4z
	 M11.3,21.4h1.5V23h-1.5V21.4z M6.5,18.7H8v1.5H6.5V18.7z"/>
  </symbol>
  <symbol id="waiter" viewBox="0 0 19 26">
    <path class="st0" d="M17.1,6c-0.4-3.3-3.2-6-6.7-6H8.2C4.8,0,2,2.5,1.5,5.8c-1.9,2.8-0.5,5.4-0.4,5.5l0,0.1
	c-0.3,0.4-0.4,0.9-0.4,1.4c0,1.2,0.8,2.2,1.9,2.5v1c0,1.5,1.3,2.8,2.8,2.8h0.4v1.3h-3c-1.5,0-2.8,1.3-2.8,2.8V26h18.6v-2.8
	c0-1.5-1.3-2.8-2.8-2.8h-3V19h0.4c1.5,0,2.8-1.3,2.8-2.8v-1c1.1-0.3,1.9-1.3,1.9-2.5c0-0.5-0.1-0.9-0.4-1.3l0.1-0.3
	c0.5-1.2,0.6-2.5,0.2-3.7H19V6C19,6,17.1,6,17.1,6z M16.3,12.8c0,0.6-0.5,1.1-1.1,1.1h-0.8v2.4c0,0.7-0.6,1.3-1.3,1.3h-1.9v3.2
	c-0.5,0.5-1.2,0.8-1.9,0.8c-0.7,0-1.4-0.3-1.9-0.8v-3.2H5.5c-0.7,0-1.3-0.6-1.3-1.3v-2.4H3.4c-0.6,0-1.1-0.5-1.1-1.1
	c0-0.5,0.4-0.9,0.8-1.1H4l0.2-0.3c0.1-0.1,0.9-1.4,0.9-3.8V7.5h1c0.2,1.1,0.7,1.8,1.3,2.3H6v1.5h1.5V9.9C7.8,10,8,10.1,8.2,10.2
	c0.9,0.4,1.9,0.3,2.8,0.2v0.9h1.5v-1c1,0,1.5,0.2,1.7,0.9l0.2,0.5h1C16,11.8,16.3,12.3,16.3,12.8z M17.1,23.2v1.3h-1.6v-2.6h0.3
	C16.5,21.9,17.1,22.5,17.1,23.2z M1.5,23.2c0-0.7,0.6-1.3,1.3-1.3h0.3v2.6H1.5V23.2z M12.2,21.9h1.7v2.6H4.6v-2.6h1.7
	c0.8,0.7,1.8,1.2,2.9,1.2S11.4,22.6,12.2,21.9z M8.2,1.5h2.2c2.6,0,4.8,1.9,5.1,4.4H3.1C3.4,3.5,5.6,1.5,8.2,1.5z M16.4,10.2h-0.9
	c-0.4-0.7-1-1.1-1.8-1.3c-0.8-0.2-1.6-0.1-2.4,0C9.3,9.1,8.2,9.1,7.7,7.5h8.5C16.6,8.3,16.6,9.3,16.4,10.2z M2.4,7.5h1.3v0.1
	c0,1.3-0.3,2.2-0.5,2.6H2.3C2.1,9.7,1.9,8.6,2.4,7.5z M10.6,13.3c-0.2,0.5-0.7,0.8-1.3,0.8c-0.6,0-1.1-0.3-1.3-0.8l-0.1-0.1
	l-1.4,0.7L6.6,14c0.5,1,1.5,1.7,2.7,1.7S11.5,15,12,14l0.1-0.1l-1.4-0.7L10.6,13.3z"/>
  </symbol>
  <symbol id="close" viewBox="0 0 24 24">
    <g>
      <path fill="none" d="M0 0h24v24H0z"/>
      <path d="M12 10.586l4.95-4.95 1.414 1.414-4.95 4.95 4.95 4.95-1.414 1.414-4.95-4.95-4.95 4.95-1.414-1.414 4.95-4.95-4.95-4.95L7.05 5.636z"/>
    </g>
  </symbol>
  <symbol id="filter" viewBox="0 0 24 24">
    <g>
      <path fill="none" d="M0 0h24v24H0z"/>
      <path fill-rule="nonzero" d="M9 13.5L4 6H3V4h18v2h-1l-5 7.5V22H9v-8.5zM6.404 6L11 12.894V20h2v-7.106L17.596 6H6.404z"/>
    </g>
  </symbol>
  <symbol id="map-pin" viewBox="0 0 24 24">
    <g>
      <path fill="none" d="M0 0h24v24H0z"/>
      <path d="M12 20.9l4.95-4.95a7 7 0 1 0-9.9 0L12 20.9zm0 2.828l-6.364-6.364a9 9 0 1 1 12.728 0L12 23.728zM12 13a2 2 0 1 0 0-4 2 2 0 0 0 0 4zm0 2a4 4 0 1 1 0-8 4 4 0 0 1 0 8z"/>
    </g>
  </symbol>
  <symbol id="sort" viewBox="0 0 22 12">
    <path class="st0" d="M22,8l-4,4l-4-4h3V0h2v8H22z M0,0h14v2H0V0z M0,5h12v2H0V5z M0,10h9v2H0V10z"/>
  </symbol>
  <symbol id="add-photo" viewBox="0 0 56 49.5">
    <path class="st0" d="M22.3,15.4c-3.3,0-6,2.7-6,6s2.7,6,6,6s6-2.7,6-6C28.2,18.2,25.6,15.4,22.3,15.4z M44.6,26.5L44.6,26.5V11.3
	c0-3-2.5-5.5-5.5-5.5h-6.9l-2.1-4.2C29.7,0.6,28.6,0,27.6,0H17C16,0,15,0.6,14.5,1.6l-2.1,4.3H5.5c-3,0-5.5,2.5-5.5,5.5v21.2
	c0,3,2.4,5.5,5.5,5.5h27.6l0,0c0,6.3,5.1,11.4,11.4,11.4S56,44.3,56,38S50.9,26.5,44.6,26.5z M22.3,31.5c-5.5,0-10.1-4.5-10.1-10.1
	c0-5.5,4.5-10.1,10.1-10.1c5.5,0,10.1,4.5,10.1,10.1C32.3,27,27.8,31.5,22.3,31.5z M44.6,46.3c-4.6,0-8.4-3.8-8.4-8.4
	s3.8-8.4,8.4-8.4s8.4,3.8,8.4,8.4S49.2,46.3,44.6,46.3z M48.5,36.4h-2.4V34c0-0.8-0.7-1.5-1.5-1.5S43,33.2,43,34v2.4h-2.4
	c-0.8,0-1.5,0.7-1.5,1.5s0.7,1.5,1.5,1.5H43v2.4c0,0.8,0.7,1.5,1.5,1.5s1.5-0.7,1.5-1.5v-2.4h2.4c0.8,0,1.5-0.7,1.5-1.5
	S49.4,36.4,48.5,36.4z"/>
  </symbol>
  <symbol id="bookmark2" viewBox="0 0 34.9 48">
    <g transform="translate(0,-952.36218)">
      <path class="st0" d="M1.5,1000.4c-0.8-0.1-1.5-0.8-1.5-1.6v-42.5c0-2.1,1.7-3.8,3.8-3.8h27.3c2.1,0,3.8,1.7,3.8,3.8v42.5
		c0,0.9-0.7,1.6-1.6,1.6c-0.3,0-0.7-0.1-0.9-0.3l-14.9-10.3L2.6,1000C2.2,1000.3,1.9,1000.4,1.5,1000.4z M3.3,995.6l13.3-9.2
		c0.5-0.4,1.3-0.4,1.9,0l13.3,9.2v-39.4c0-0.3-0.2-0.5-0.5-0.5H3.8c-0.3,0-0.5,0.2-0.5,0.5V995.6z"/>
    </g>
  </symbol>
  <symbol id="name" viewBox="0 0 48 40">
    <g>
      <path class="st0" d="M42.5,4H32V3.5C32,1.6,30.4,0,28.5,0h-9C17.6,0,16,1.6,16,3.5V4H5.5C2.5,4,0,6.5,0,9.5v25c0,3,2.5,5.5,5.5,5.5
		h37c3,0,5.5-2.5,5.5-5.5v-25C48,6.5,45.5,4,42.5,4z M19,3.5C19,3.2,19.2,3,19.5,3h9C28.8,3,29,3.2,29,3.5v4C29,7.8,28.8,8,28.5,8
		h-9C19.2,8,19,7.8,19,7.5V3.5z M45,34.5c0,1.4-1.1,2.5-2.5,2.5h-37C4.1,37,3,35.9,3,34.5v-25C3,8.1,4.1,7,5.5,7H16v0.5
		c0,1.9,1.6,3.5,3.5,3.5h9c1.9,0,3.5-1.6,3.5-3.5V7h10.5C43.9,7,45,8.1,45,9.5V34.5z"/>
      <path class="st0" d="M15,24c2.8,0,5-2.2,5-5c0-2.8-2.2-5-5-5s-5,2.2-5,5C10,21.8,12.2,24,15,24z M15,17c1.1,0,2,0.9,2,2
		c0,1.1-0.9,2-2,2s-2-0.9-2-2C13,17.9,13.9,17,15,17z"/>
      <path class="st0" d="M18.5,26h-7c-3,0-5.5,2.5-5.5,5.5v1C6,33.3,6.7,34,7.5,34S9,33.3,9,32.5v-1c0-1.4,1.1-2.5,2.5-2.5h7
		c1.4,0,2.5,1.1,2.5,2.5v1c0,0.8,0.7,1.5,1.5,1.5s1.5-0.7,1.5-1.5v-1C24,28.5,21.5,26,18.5,26z"/>
      <path class="st0" d="M40.5,15h-11c-0.8,0-1.5,0.7-1.5,1.5s0.7,1.5,1.5,1.5h11c0.8,0,1.5-0.7,1.5-1.5S41.3,15,40.5,15z"/>
      <path class="st0" d="M40.5,23h-11c-0.8,0-1.5,0.7-1.5,1.5s0.7,1.5,1.5,1.5h11c0.8,0,1.5-0.7,1.5-1.5S41.3,23,40.5,23z"/>
      <path class="st0" d="M40.5,31h-11c-0.8,0-1.5,0.7-1.5,1.5s0.7,1.5,1.5,1.5h11c0.8,0,1.5-0.7,1.5-1.5S41.3,31,40.5,31z"/>
    </g>
  </symbol>
  <symbol id="paper" viewBox="0 0 40.5 48">
    <g>
      <path class="st0" d="M24.7,6.2V0h-8.8v6.2H0V48h31.5l9-9.7V6.2H24.7z M18.7,2.8h3.2v9.7h-3.2V2.8z M32.3,43v-3.6h3.3L32.3,43z
		 M29.5,36.6v8.6H2.8V9h13.1v6.4h8.8V9h13v27.6H29.5z"/>
      <rect x="9.3" y="21.6" class="st0" width="14.1" height="2.8"/>
      <rect x="9.3" y="26.6" class="st0" width="22" height="2.8"/>
      <rect x="9.3" y="31.6" class="st0" width="14.1" height="2.8"/>
    </g>
  </symbol>
  <symbol id="question" viewBox="0 0 48 48">
    <g>
      <path class="st0" d="M48,32.5c0-7-4.7-13.1-11.4-15C36.2,7.8,28.2,0,18.3,0C8.2,0,0,8.2,0,18.3c0,3.3,0.9,6.5,2.5,9.3l-2.5,8.9
		L9,34.1c2.6,1.5,5.5,2.4,8.5,2.5c1.8,6.6,8,11.4,15,11.4c2.8,0,5.5-0.7,7.9-2.2l7.6,2.1l-2.1-7.6C47.3,38,48,35.3,48,32.5z
		 M10,31.4l-0.5-0.3l-5.4,1.5l1.5-5.4l-0.3-0.5c-1.6-2.5-2.4-5.4-2.4-8.3c0-8.6,7-15.5,15.5-15.5s15.5,7,15.5,15.5
		s-7,15.5-15.5,15.5C15.4,33.8,12.5,33,10,31.4z M43.9,43.9l-4-1.1l-0.5,0.3c-2.1,1.3-4.4,2-6.9,2c-5.5,0-10.3-3.6-12-8.7
		c8.4-1,15.1-7.7,16.1-16.1c5.1,1.7,8.7,6.5,8.7,12c0,2.5-0.7,4.9-2,6.9l-0.3,0.5L43.9,43.9z"/>
      <rect x="16.9" y="25.4" class="st0" width="2.8" height="2.8"/>
      <path class="st0" d="M18.3,8.4c-3.1,0-5.6,2.5-5.6,5.6h2.8c0-1.6,1.3-2.8,2.8-2.8s2.8,1.3,2.8,2.8c0,0.8-0.3,1.5-0.9,2.1l-3.3,3
		v3.4h2.8v-2.2l2.4-2.2c1.2-1.1,1.8-2.6,1.8-4.2C24,11,21.4,8.4,18.3,8.4z"/>
    </g>
  </symbol>
  <symbol id="ruble" viewBox="0 0 48 32">
    <g>
      <path class="st0" d="M28,6h-7.5C19.7,6,19,6.7,19,7.5V20h-3.5c-0.8,0-1.5,0.7-1.5,1.5s0.7,1.5,1.5,1.5H19v1.5
		c0,0.8,0.7,1.5,1.5,1.5s1.5-0.7,1.5-1.5V23h4.5c0.8,0,1.5-0.7,1.5-1.5S27.3,20,26.5,20H22v-2h6c3.3,0,6-2.7,6-6S31.3,6,28,6z
		 M28,15h-6V9h6c1.7,0,3,1.3,3,3S29.7,15,28,15z"/>
      <path class="st0" d="M42.5,0h-37C2.5,0,0,2.5,0,5.5v21c0,3,2.5,5.5,5.5,5.5h37c3,0,5.5-2.5,5.5-5.5v-21C48,2.5,45.5,0,42.5,0z
		 M45,26.5c0,1.4-1.1,2.5-2.5,2.5h-37C4.1,29,3,27.9,3,26.5v-21C3,4.1,4.1,3,5.5,3h37C43.9,3,45,4.1,45,5.5V26.5z"/>
      <path class="st0" d="M12.5,6h-5C6.7,6,6,6.7,6,7.5S6.7,9,7.5,9h5C13.3,9,14,8.3,14,7.5S13.3,6,12.5,6z"/>
      <path class="st0" d="M40.5,23h-5c-0.8,0-1.5,0.7-1.5,1.5s0.7,1.5,1.5,1.5h5c0.8,0,1.5-0.7,1.5-1.5S41.3,23,40.5,23z"/>
    </g>
  </symbol>
  <symbol id="shoping-list" viewBox="0 0 36 48">
    <g>
      <path class="st0" d="M15.4,18.4l-4.9,4.9l-1.9-1.9c-0.6-0.6-1.5-0.6-2.1,0c-0.6,0.6-0.6,1.5,0,2.1l3,3c0.3,0.3,0.7,0.4,1.1,0.4
		s0.8-0.1,1.1-0.4l6-6c0.6-0.6,0.6-1.5,0-2.1C17,17.9,16,17.9,15.4,18.4z"/>
      <path class="st0" d="M15.4,30.4l-4.9,4.9l-1.9-1.9c-0.6-0.6-1.5-0.6-2.1,0s-0.6,1.5,0,2.1l3,3c0.3,0.3,0.7,0.4,1.1,0.4
		s0.8-0.1,1.1-0.4l6-6c0.6-0.6,0.6-1.5,0-2.1S16,29.9,15.4,30.4z"/>
      <path class="st0" d="M21,22.5c0,0.8,0.7,1.5,1.5,1.5h6c0.8,0,1.5-0.7,1.5-1.5c0-0.8-0.7-1.5-1.5-1.5h-6C21.7,21,21,21.7,21,22.5z"
      />
      <path class="st0" d="M28.5,33h-6c-0.8,0-1.5,0.7-1.5,1.5c0,0.8,0.7,1.5,1.5,1.5h6c0.8,0,1.5-0.7,1.5-1.5C30,33.7,29.3,33,28.5,33z"
      />
      <path class="st0" d="M33,6h-6V4.5C27,3.7,26.3,3,25.5,3h-3.3C21.6,1.3,20,0,18,0s-3.6,1.3-4.2,3h-3.3C9.7,3,9,3.7,9,4.5V6H3
		C1.3,6,0,7.3,0,9v36c0,1.7,1.3,3,3,3h30c1.7,0,3-1.3,3-3V9C36,7.3,34.7,6,33,6z M12,6h3c0.8,0,1.5-0.7,1.5-1.5
		C16.5,3.7,17.2,3,18,3c0.8,0,1.5,0.7,1.5,1.5C19.5,5.3,20.2,6,21,6h3v3H12V6z M33,45H3V9h6v1.5c0,0.8,0.7,1.5,1.5,1.5h15
		c0.8,0,1.5-0.7,1.5-1.5V9h6V45z"/>
    </g>
  </symbol>
  <symbol id="talk" viewBox="0 0 48 48">
    <g>
      <path class="st0" d="M41,14.1h-4.2V7c0-3.9-3.2-7-7-7H7C3.2,0,0,3.2,0,7v14.1c0,3.4,2.4,6.2,5.6,6.9v4.4c0,0.5,0.3,1,0.7,1.2
		c0.5,0.2,1,0.2,1.4-0.1l3.4-2.3v3.9c0,3.9,3.2,7,7,7h13.8l8.1,5.6c0.4,0.3,1,0.3,1.5,0.1c0.5-0.2,0.8-0.7,0.8-1.2V42
		c3.2-0.7,5.6-3.5,5.6-6.9V21.1C48,17.2,44.8,14.1,41,14.1z M8.4,29.7v-3c0-0.8-0.6-1.4-1.4-1.4c-2.3,0-4.2-1.9-4.2-4.2V7
		c0-2.3,1.9-4.2,4.2-4.2h22.7c2.3,0,4.2,1.9,4.2,4.2v14.1c0,2.3-1.9,4.2-4.2,4.2H15.5c-0.3,0-0.5,0.1-0.8,0.2L8.4,29.7z M45.2,35.2
		c0,2.3-1.9,4.2-4.2,4.2c-0.8,0-1.4,0.6-1.4,1.4v3.1l-6.2-4.3c-0.2-0.2-0.5-0.2-0.8-0.2H18.3c-2.3,0-4.2-1.9-4.2-4.2v-5.8l1.8-1.2
		h13.8c3.9,0,7-3.2,7-7v-4.2H41c2.3,0,4.2,1.9,4.2,4.2V35.2z"/>
      <path class="st0" d="M9.8,9.8h11.4c0.8,0,1.4-0.6,1.4-1.4S22.1,7,21.3,7H9.8C9.1,7,8.4,7.7,8.4,8.4S9.1,9.8,9.8,9.8z"/>
      <path class="st0" d="M9.8,15.5h11.4c0.8,0,1.4-0.6,1.4-1.4c0-0.8-0.6-1.4-1.4-1.4H9.8c-0.8,0-1.4,0.6-1.4,1.4
		C8.4,14.8,9.1,15.5,9.8,15.5z"/>
      <path class="st0" d="M28.3,19.7c0-0.8-0.6-1.4-1.4-1.4H9.8c-0.8,0-1.4,0.6-1.4,1.4s0.6,1.4,1.4,1.4h17.1
		C27.7,21.1,28.3,20.5,28.3,19.7z"/>
      <circle class="st0" cx="26.9" cy="8.4" r="1.4"/>
      <circle class="st0" cx="26.9" cy="14.1" r="1.4"/>
      <path class="st0" d="M38.2,32.3H21.3c-0.8,0-1.4,0.6-1.4,1.4s0.6,1.4,1.4,1.4h16.9c0.8,0,1.4-0.6,1.4-1.4S38.9,32.3,38.2,32.3z"/>
    </g>
  </symbol>
  <symbol id="mail" viewBox="0 0 24 24">
    <g>
      <path fill="none" d="M0 0h24v24H0z"/>
      <path d="M3 3h18a1 1 0 0 1 1 1v16a1 1 0 0 1-1 1H3a1 1 0 0 1-1-1V4a1 1 0 0 1 1-1zm17 4.238l-7.928 7.1L4 7.216V19h16V7.238zM4.511 5l7.55 6.662L19.502 5H4.511z"/>
    </g>
  </symbol>
  <symbol id="mail-check" viewBox="0 0 24 24">
    <g>
      <path class="st0" d="M0,0h24v24H0V0z" style="fill:none"/>
      <path class="st1" d="M22,14h-2V7.2l-7.9,7.1L4,7.2V19h10v2H3c-0.6,0-1-0.4-1-1V4c0-0.6,0.4-1,1-1h18c0.6,0,1,0.4,1,1V14z M4.5,5
		l7.6,6.7L19.5,5H4.5z M19,22l-3.5-3.5l1.4-1.4l2.1,2.1l3.5-3.5l1.4,1.4L19,22z"/>
    </g>
  </symbol>
  <symbol id="mail-send" viewBox="0 0 24 24">
    <g>
      <path class="st0" d="M0,0h24v24H0V0z" style="fill:none"/>
      <path class="st1" d="M22,20c0,0.5-0.4,1-1,1H3c-0.5,0-1-0.4-1-1v-1h18V7.3l-8,7.2l-10-9V4c0-0.6,0.4-1,1-1h18c0.6,0,1,0.4,1,1V20z
		 M4.4,5l7.6,6.8L19.6,5H4.4z M0,15h8v2H0V15z M0,10h5v2H0V10z"/>
    </g>
  </symbol>
  <symbol id="more" viewBox="0 0 24 24">
    <g>
      <path fill="none" d="M0 0h24v24H0z"/>
      <path d="M12 3c-1.1 0-2 .9-2 2s.9 2 2 2 2-.9 2-2-.9-2-2-2zm0 14c-1.1 0-2 .9-2 2s.9 2 2 2 2-.9 2-2-.9-2-2-2zm0-7c-1.1 0-2 .9-2 2s.9 2 2 2 2-.9 2-2-.9-2-2-2z"/>
    </g>
  </symbol>
  <symbol id="pdf" viewBox="0 0 28.9 32">
    <g>
      <path class="st0" d="M26.7,11.3V8l-8-8H2.2v11.3H0v16h2.2V32h24.5v-4.8h2.2v-16H26.7z M19.2,3.2l4.3,4.3h-4.3V3.2z M4.1,1.9h13.3
		v7.5h7.5v1.9H4.1V1.9z M24.8,30.1H4.1v-2.9h20.8V30.1z M27,25.4H1.9V13.1H27V25.4z"/>
      <path class="st0" d="M6.4,20.8h0.9c1.6,0,2.8-1.3,2.8-2.8s-1.3-2.8-2.8-2.8H4.6v8.5h1.9V20.8z M6.4,17h0.9c0.5,0,1,0.4,1,1
		s-0.4,1-1,1H6.4V17z"/>
      <path class="st0" d="M17.7,19.9v-1c0-2.1-1.7-3.8-3.8-3.8h-1.9v8.5h1.9C16,23.6,17.7,21.9,17.7,19.9z M13.9,17c1,0,1.9,0.8,1.9,1.9
		v1c0,1-0.8,1.9-1.9,1.9V17z"/>
      <polygon class="st0" points="21.6,21 23.4,21 23.4,19.2 21.6,19.2 21.6,17 24.4,17 24.4,15.1 19.7,15.1 19.7,23.6 21.6,23.6 	"/>
    </g>
  </symbol>
  <symbol id="file" viewBox="0 0 24 24">
    <g>
      <path fill="none" d="M0,0h24v24H0V0z"/>
      <path d="M9,2L9,2l11,0c0.6,0,1,0.5,1,1v18c0,0.5-0.4,1-1,1H4c-0.6,0-1-0.5-1-1c0,0,0,0,0,0V8C3,8,9,2,9,2z M5.8,8H9
		V4.8L5.8,8z M11,4v5c0,0.6-0.4,1-1,1H5v10h14V4H11z"/>
    </g>
  </symbol>
  <symbol id="image" viewBox="0 0 24 24">
    <g>
      <path fill="none" d="M0,0h24v24H0V0z"/>
      <path d="M4.8,21L4.8,21L4.8,21H3c-0.5,0-1-0.4-1-1V4c0-0.5,0.4-1,1-1h18c0.5,0,1,0.4,1,1v16c0,0.5-0.4,1-1,1H4.8z
		 M20,15V5H4v14L14,9L20,15z M20,17.8l-6-6L6.8,19H20V17.8z M8,11c-1.1,0-2-0.9-2-2s0.9-2,2-2s2,0.9,2,2S9.1,11,8,11z"/>
    </g>
  </symbol>
  <symbol id="paper-clip" viewBox="0 0 34.7 32">
    <g>
      <path class="st0" d="M32.5,2.1C31.2,0.8,29.3,0,27.4,0s-3.8,0.8-5.2,2.1L6.4,17.9c-1,1-1.6,2.4-1.6,3.8s0.6,2.8,1.6,3.8
			c2.1,2.1,5.5,2.1,7.6,0l13.8-13.8l-1.6-1.6L12.5,24c-1.2,1.2-3.2,1.2-4.4,0c-0.6-0.6-0.9-1.4-0.9-2.2c0-0.8,0.3-1.6,0.9-2.2
			L23.8,3.7c1-0.9,2.2-1.5,3.6-1.5c1.3,0,2.6,0.5,3.6,1.5c1,1,1.5,2.2,1.5,3.6s-0.5,2.6-1.5,3.6L14.1,27.7c-2.7,2.7-7.1,2.7-9.8,0
			c-1.3-1.3-2-3-2-4.9c0-1.8,0.7-3.6,2-4.9L19.2,3l-1.6-1.6L2.7,16.3c-3.6,3.6-3.6,9.4,0,13C4.5,31.1,6.8,32,9.2,32
			c2.4,0,4.7-0.9,6.5-2.7l16.9-16.9c1.4-1.4,2.1-3.2,2.1-5.2S33.9,3.5,32.5,2.1z"/>
    </g>
  </symbol>
  <symbol id="send-plane" viewBox="0 0 24 24">
    <g>
      <path fill="none" d="M0,0h24v24H0V0z"/>
      <path d="M1.9,9.3C1.4,9.1,1.4,8.9,2,8.7L21,2.3c0.5-0.2,0.8,0.1,0.7,0.6L16.3,22c-0.1,0.5-0.5,0.5-0.7,0L12,14l6-8
		l-8,6C10,12,1.9,9.3,1.9,9.3z"/>
    </g>
  </symbol>
  <symbol id="vegetables" viewBox="0 0 48 48">
    <g>
      <path class="st0" d="M44.6,22.5c0.3-0.9,0.5-1.8,0.5-2.8c0-2.4-1.1-4.7-2.9-6.3c0.3-2.3-0.7-4.8-2.8-6.3c0,0,0,0,0,0
		c0-3.9-3.2-7-7-7s-7,3.2-7,7v0c-1.8,1.3-2.8,3.4-2.8,5.6c0,0.5,0.1,1,0.2,1.4c-0.1,0-0.1,0-0.2,0c-2,0-3.9,0.4-5.6,1.1
		c0-1.2-0.4-2.5-1.1-3.5C15.1,10.5,14,9.6,12.7,9l3.8-3.8l-2-2l-3.2,3.2V0H8.5v6.4L5.3,3.2l-2,2L7.1,9c-3.3,1.5-5,5.3-3.8,8.7l1,4.7
		H0V48h48V22.5H44.6z M27.6,9l0.8-0.5c-0.2-1.4-0.2-1.4-0.2-1.5c0-2.3,1.9-4.2,4.2-4.2s4.2,1.9,4.2,4.2c0,0.1,0,0.1-0.2,1.5L37.3,9
		c1.6,0.9,2.5,2.7,2,4.6l-0.2,0.9c0.7,0.5,3.2,1.9,3.2,5.1c0,1-0.3,2-0.8,2.8h-6.7l4.5-4.5l-2-2l-3.6,3.6V11H31v5.9
		c-1.5-1.3-3.3-2.1-5.3-2.5c-0.2-0.6-0.3-1.2-0.3-1.7C25.4,11.2,26.2,9.7,27.6,9z M22.6,16.9c4.8,0,8.4,2.7,8.4,5.6H14.2
		C14.2,19.6,17.8,16.9,22.6,16.9z M9.9,11.3c1.4,0,2.8,0.7,3.5,1.9c0.8,1.2,0.9,2.6,0.3,4c-1.6,1.5-2.5,3.3-2.5,5.3H7.1l-0.6-2.8
		h3.4v-2.8H6c-0.2-0.5-0.2-0.9-0.2-1.4C5.7,13.1,7.6,11.3,9.9,11.3z M45.2,45.2H2.8V25.3h42.4V45.2z"/>
      <path class="st0" d="M31,28.2H17v8.4H31V28.2z M28.2,33.8h-8.4V31h8.4V33.8z"/>
    </g>
  </symbol>
  <symbol id="patent" viewBox="0 0 48 48">
    <g>
      <path class="st0" d="M47.9,43l-3.9-7.8c0.7-1.3,1-2.8,1-4.4c0-2.8-1.2-5.2-3-7V4.4C42,2,40,0,37.6,0H4.4C2,0,0,1.9,0,4.4v4.5
		c0,0.8,0.6,1.4,1.4,1.4H6v24.3H1.4C0.6,34.6,0,35.3,0,36v4.5C0,43,2,45,4.4,45h19.2l5.7,2.9C29.6,48,29.8,48,30,48
		c0.5,0,1-0.3,1.3-0.8l1.1-2.2h5.8l1.1,2.2c0.3,0.5,0.8,0.8,1.3,0.8c0.2,0,0.4,0,0.6-0.1l6-3c0.3-0.2,0.6-0.5,0.7-0.8
		C48,43.7,48,43.3,47.9,43z M6,40.6c0,0.9-0.7,1.6-1.6,1.6c-0.9,0-1.6-0.7-1.6-1.6v-3.1H6V40.6z M6,7.5H2.8V4.4
		c0-0.9,0.7-1.6,1.6-1.6C5.3,2.8,6,3.5,6,4.4V7.5z M23.1,42.2H8.5c0.2-0.5,0.3-1,0.3-1.6V4.4c0-0.6-0.1-1.1-0.3-1.6h29
		c0.9,0,1.6,0.7,1.6,1.6v17.5c-1.2-0.5-2.5-0.8-3.9-0.8H13.5c-0.8,0-1.4,0.6-1.4,1.4s0.6,1.4,1.4,1.4h15c-0.9,0.9-1.7,2-2.2,3.2
		H13.5c-0.8,0-1.4,0.6-1.4,1.4c0,0.8,0.6,1.4,1.4,1.4h12.2c0,0.3,0,0.6,0,0.9c0,1.6,0.4,3.1,1,4.4L23.1,42.2z M29.4,44.7L25.9,43
		l2.6-5.3c0.9,0.9,2.1,1.7,3.3,2.1L29.4,44.7z M33.8,42.2l0.9-1.7c0.2,0,0.4,0,0.6,0s0.4,0,0.6,0l0.9,1.7H33.8z M35.3,37.7
		c-3.8,0-6.9-3.1-6.9-6.9c0-3.8,3.1-6.9,6.9-6.9s6.9,3.1,6.9,6.9S39.1,37.7,35.3,37.7z M41.2,44.7l-2.4-4.9c1.3-0.5,2.4-1.2,3.3-2.1
		l2.6,5.3L41.2,44.7z"/>
      <path class="st0" d="M39.2,28.2c-0.6-0.5-1.5-0.4-2,0.2l-2.6,3.2l-1.2-1.6c-0.5-0.6-1.3-0.7-2-0.3c-0.6,0.5-0.7,1.3-0.3,2l2.3,3
		c0.5,0.7,1.6,0.8,2.2,0.1l3.8-4.5C39.9,29.6,39.8,28.7,39.2,28.2z"/>
      <path class="st0" d="M18,10.3h12c0.8,0,1.4-0.6,1.4-1.4c0-0.8-0.6-1.4-1.4-1.4H18c-0.8,0-1.4,0.6-1.4,1.4
		C16.6,9.7,17.2,10.3,18,10.3z"/>
      <path class="st0" d="M21,33.1h-7.5c-0.8,0-1.4,0.6-1.4,1.4c0,0.8,0.6,1.4,1.4,1.4H21c0.8,0,1.4-0.6,1.4-1.4
		C22.4,33.8,21.8,33.1,21,33.1z"/>
      <path class="st0" d="M13.5,17.9h21.1c0.8,0,1.4-0.6,1.4-1.4c0-0.8-0.6-1.4-1.4-1.4H13.5c-0.8,0-1.4,0.6-1.4,1.4
		C12,17.2,12.7,17.9,13.5,17.9z"/>
    </g>
  </symbol>
  <symbol id="stamp" viewBox="0 0 45 48">
    <g>
      <path class="st0" d="M32.9,0H8.4v20c0,0-0.1,0-0.1,0c-2.6,0.5-4.7,2.6-5.3,5.1c-0.5,2.2,0,4.4,1.3,6.1c1.3,1.6,1.3,4,1.3,4
		c0,2.3-1.9,4.2-4.2,4.2H0V48h45V12.3L32.9,0z M33.8,4.8l6.5,6.6h-6.5V4.8z M5.8,25.8c0.4-1.5,1.6-2.7,3.2-3
		c2.8-0.6,5.1,1.5,5.1,4.1c0,0.9-0.3,1.7-0.7,2.4c-2.3,3.2-2,6-2.1,6.1c0,1.6,0.5,3,1.4,4.2H7c0.9-1.2,1.4-2.6,1.4-4.2
		c0-0.1,0.2-3.2-1.9-5.8C5.7,28.5,5.4,27.2,5.8,25.8z M16.9,45.2H2.8v-2.8h14.1V45.2z M42.2,45.2H19.7v-5.6h-1.4
		c-2.3,0-4.2-1.9-4.2-4.2c0-0.1-0.2-1.9,1.6-4.4c0.8-1.2,1.3-2.6,1.3-4c0-3.4-2.4-6.2-5.6-6.9V2.8h19.7v11.4h11.3V45.2z"/>
      <path class="st0" d="M30.9,25.5c-4.7,0-8.4,3.8-8.4,8.4s3.8,8.4,8.4,8.4s8.4-3.8,8.4-8.4S35.6,25.5,30.9,25.5z M30.9,39.6
		c-3.1,0-5.6-2.5-5.6-5.6s2.5-5.6,5.6-5.6s5.6,2.5,5.6,5.6S34,39.6,30.9,39.6z"/>
      <rect x="14.1" y="8.6" class="st0" width="14.1" height="2.8"/>
      <rect x="14.1" y="14.3" class="st0" width="14.1" height="2.8"/>
      <rect x="19.7" y="19.9" class="st0" width="19.7" height="2.8"/>
    </g>
  </symbol>
</svg>
